<?xml version="1.0" encoding="UTF-8"?>
<svg xmlns="http://www.w3.org/2000/svg" xmlns:xlink="http://www.w3.org/1999/xlink" width="315.64pt" height="152pt" viewBox="0 0 315.64 152" version="1.1">
<defs>
<clipPath id="clip1">
  <path d="M 259 48 L 315.640625 48 L 315.640625 104 L 259 104 Z M 259 48 "/>
</clipPath>
</defs>
<g id="surface1">
<path style=" stroke:none;fill-rule:nonzero;fill:rgb(90.979004%,45.489502%,14.117432%);fill-opacity:1;" d="M 38.90625 50.589844 L 21.441406 42.683594 C 13.507813 38.945313 9.871094 29.480469 13.609375 21.542969 C 17.347656 13.605469 26.8125 9.972656 34.75 13.710938 C 37.925781 15.164063 40.480469 17.609375 42.03125 20.4375 C 43.199219 22.460938 45.585938 23.101563 47.40625 21.933594 C 49.429688 20.769531 50.070313 18.378906 48.902344 16.558594 C 46.574219 12.316406 42.839844 8.652344 37.878906 6.363281 C 25.769531 0.953125 11.679688 6.105469 6.066406 18.210938 C 0.453125 30.3125 5.808594 44.410156 17.914063 50.023438 L 35.378906 57.929688 C 42.324219 61.050781 47.199219 68.335938 47.054688 76.535156 C 46.863281 87.53125 37.707031 96.375 26.710938 96.183594 C 17.511719 96.023438 9.824219 89.488281 7.769531 81.050781 C 7.207031 78.839844 5.03125 77.601563 3.019531 78.164063 C 0.808594 78.726563 -0.429688 80.90625 0.136719 82.917969 C 3.125 94.972656 13.769531 103.957031 26.769531 104.183594 C 42.167969 104.453125 54.984375 92.074219 55.253906 76.679688 C 55.457031 65.078125 48.632813 54.960938 38.90625 50.589844 "/>
<path style=" stroke:none;fill-rule:nonzero;fill:rgb(90.979004%,45.489502%,14.117432%);fill-opacity:1;" d="M 91.640625 48 C 76.242188 48 63.640625 60.601563 63.640625 76 C 63.640625 91.402344 76.242188 104 91.640625 104 C 107.039063 104 119.640625 91.402344 119.640625 76 C 119.640625 60.601563 107.039063 48 91.640625 48 M 91.640625 96 C 80.640625 96 71.640625 87 71.640625 76 C 71.640625 65 80.640625 56 91.640625 56 C 102.640625 56 111.640625 65 111.640625 76 C 111.640625 87 102.640625 96 91.640625 96 "/>
<path style=" stroke:none;fill-rule:nonzero;fill:rgb(90.979004%,45.489502%,14.117432%);fill-opacity:1;" d="M 156.039063 90.597656 C 154.039063 89.402344 151.640625 90.199219 150.640625 92 C 149.242188 94.402344 146.640625 96 143.84375 96 C 139.441406 96 135.84375 92.402344 135.84375 88 L 135.84375 28 C 135.84375 25.800781 134.039063 24 131.84375 24 C 129.640625 24 127.84375 25.800781 127.84375 28 L 127.84375 88 C 127.84375 96.800781 135.039063 104 143.84375 104 C 149.84375 104 154.84375 100.800781 157.640625 96 C 158.640625 94 157.84375 91.597656 156.039063 90.597656 "/>
<path style=" stroke:none;fill-rule:nonzero;fill:rgb(90.979004%,45.489502%,14.117432%);fill-opacity:1;" d="M 254.039063 61.398438 C 252.039063 62.601563 249.640625 61.800781 248.640625 60 C 247.242188 57.601563 244.640625 56 241.839844 56 C 237.441406 56 233.839844 59.601563 233.839844 64 L 233.839844 124 C 233.839844 126.199219 232.039063 128 229.839844 128 C 227.640625 128 225.839844 126.199219 225.839844 124 L 225.839844 64 C 225.839844 55.199219 233.039063 48 241.839844 48 C 247.839844 48 252.839844 51.199219 255.640625 56 C 256.640625 58 255.839844 60.398438 254.039063 61.398438 "/>
<path style=" stroke:none;fill-rule:nonzero;fill:rgb(90.979004%,45.489502%,14.117432%);fill-opacity:1;" d="M 175.640625 18.398438 C 164.441406 7 148.84375 0 131.640625 0 C 114.441406 0 98.84375 7 87.640625 18.398438 C 86.042969 20 86.042969 22.601563 87.640625 24 C 89.242188 25.601563 91.84375 25.601563 93.242188 24 C 103.039063 14.199219 116.640625 8 131.640625 8 C 146.640625 8 160.242188 14.199219 170.039063 24 C 171.640625 25.601563 174.242188 25.601563 175.640625 24 C 177.242188 22.398438 177.242188 20 175.640625 18.398438 "/>
<path style=" stroke:none;fill-rule:nonzero;fill:rgb(90.979004%,45.489502%,14.117432%);fill-opacity:1;" d="M 273.640625 133.601563 C 262.441406 145 246.839844 152 229.640625 152 C 212.441406 152 196.839844 145 185.640625 133.601563 C 184.039063 132 184.039063 129.398438 185.640625 128 C 187.242188 126.398438 189.839844 126.398438 191.242188 128 C 201.039063 137.800781 214.640625 144 229.640625 144 C 244.640625 144 258.242188 137.800781 268.039063 128 C 269.640625 126.398438 272.242188 126.398438 273.640625 128 C 275.242188 129.601563 275.242188 132 273.640625 133.601563 "/>
<path style=" stroke:none;fill-rule:nonzero;fill:rgb(90.979004%,45.489502%,14.117432%);fill-opacity:1;" d="M 189.640625 48 C 174.242188 48 161.640625 60.601563 161.640625 76 C 161.640625 91.402344 174.242188 104 189.640625 104 C 197.441406 104 204.441406 100.800781 209.441406 95.800781 C 211.039063 94.199219 211.039063 91.800781 209.441406 90.199219 C 207.839844 88.597656 205.242188 88.597656 203.839844 90.199219 C 200.242188 93.800781 195.242188 96 189.640625 96 C 180.039063 96 171.839844 89.199219 170.039063 80 L 213.640625 80 C 215.839844 80 217.640625 78.199219 217.640625 76 C 217.640625 60.601563 205.039063 48 189.640625 48 M 189.640625 56 C 199.242188 56 207.441406 62.800781 209.242188 72 L 170.039063 72 C 171.839844 62.800781 180.039063 56 189.640625 56 "/>
<g clip-path="url(#clip1)" clip-rule="nonzero">
<path style=" stroke:none;fill-rule:nonzero;fill:rgb(90.979004%,45.489502%,14.117432%);fill-opacity:1;" d="M 287.640625 48 C 272.242188 48 259.640625 60.601563 259.640625 76 C 259.640625 91.402344 272.242188 104 287.640625 104 C 295.441406 104 302.640625 100.800781 307.640625 95.597656 L 307.640625 100 C 307.640625 102.199219 309.441406 104 311.640625 104 C 313.839844 104 315.640625 102.199219 315.640625 100 L 315.640625 76 C 315.640625 60.601563 303.039063 48 287.640625 48 M 287.640625 96 C 276.640625 96 267.640625 87 267.640625 76 C 267.640625 65 276.640625 56 287.640625 56 C 298.640625 56 307.640625 65 307.640625 76 C 307.640625 87 298.640625 96 287.640625 96 "/>
</g>
</g>
</svg>
